<?xml version="1.0" encoding="UTF-8" standalone="no"?>
<svg xmlns="http://www.w3.org/2000/svg" height="557.51" width="462.17" version="1.0" xmlns:xlink="http://www.w3.org/1999/xlink" viewBox="0 0 324 216.001">
 <path d="m121.45-28.985c-7.63-6.263-13.44-13.134-17.43-20.611l-44.103 46.325 44.103 46.325c4.4262-8.2527 10.583-14.775 17.426-20.611v-51.428zm80.928 0c6.654-5.7433 12.591-12.442 17.426-20.611l44.1 46.325-44.11 46.325c-4.382-7.9403-10.634-14.478-17.426-20.611v-51.428z" stroke="#828282" stroke-width="2.1031" fill="#fff"/>
 <g>
  <path d="m96.049-82.867c-22.997 18.92-37.609 47.555-37.609 79.596 0 32.069 14.676 60.676 37.708 79.596-0.02205-0.69494-0.0983-1.3609-0.0983-2.0611 0-11.299 2.9271-21.922 7.9747-31.21-0.0157-0.0201 0.0157-0.07792 0-0.09815-10.189-12.669-16.339-28.734-16.339-46.224s6.1505-33.555 16.343-46.227c-0.0126-0.02575 0.0126-0.07245 0-0.09815-5.0476-9.2885-7.9747-19.911-7.9747-31.21 0-0.7002 0.07656-1.3661 0.0983-2.0611-0.0189 0.01633-0.07845-0.01633-0.0983 0zm131.63 0c0.0221 0.69494 0.0983 1.3609 0.0983 2.0611 0 11.299-2.9271 21.922-7.9747 31.21-0.0126 0.02575 0.0126 0.07246 0 0.09815 10.193 12.671 16.343 28.736 16.343 46.227 0 17.49-6.1505 33.555-16.343 46.227 0.0126 0.02575-0.0126 0.07246 0 0.09815 5.0476 9.2885 7.9747 19.911 7.9747 31.21 0 0.7002-0.0765 1.3661-0.0983 2.0611 23.032-18.92 37.708-47.527 37.708-79.596s-14.676-60.676-37.708-79.596z" stroke="#7f0b16" stroke-width="2.1031" fill="#ce1126"/>
  <path d="m121.45-28.985c-4.7662 7.4377-7.5809 16.24-7.5809 25.714 0 9.4743 2.8147 18.276 7.5809 25.714 11.172-8.687 25.208-13.937 40.464-13.937s29.292 5.2497 40.464 13.937c4.7662-7.4377 7.5809-16.24 7.5809-25.714 0-9.4743-2.8147-18.276-7.5809-25.714-11.172 8.687-25.208 13.937-40.464 13.937s-29.292-5.2497-40.464-13.937z" stroke="#00124f" stroke-width="2.1031" fill="#002654"/>
  <path d="m171.7-62.676c-3.79-4.2556-8.2228-9.1174-9.7823-13.687-1.5595 4.5697-5.9922 9.4314-9.7823 13.687-2.9237 3.2789-5.4472 6.1903-5.9954 8.3322v1.3536c0.16382 0.61243 0.56079 1.1369 1.361 1.5232h14.417 14.417c0.80023-0.3863 1.1972-0.91079 1.361-1.5232v-1.3505c-0.54504-2.1451-3.0717-5.0565-5.9954-8.3353z" stroke="#806600" stroke-width="1.4021" fill="#ffcc02"/>
  <rect height="318.66" width="31.505" stroke="#00124f" y="-35.278" x="146.16" stroke-width="1.7526" fill="#002654"/>
 </g>
 <g id="g3857" transform="translate(-6.0159 -7.3097)">
  <path d="m185.72-42.246-35.584 0.02637c3.8255 4.6204 3.8304 8.902 0.009 12.839l35.579-0.02096c-3.1824-3.9374-3.1873-8.2189-0.004-12.845z" fill-rule="evenodd" stroke="#806600" stroke-width="1.4021" fill="#ffcc02"/>
  <path d="m185.96-45.633-36.073 0.02379c-0.86633-0.0029-1.5733 0.64826-1.5731 1.4382l-0.002 2.0593c0.00025 0.78996 0.71056 1.4343 1.582 1.4318l36.073-0.02379c0.86096-0.0024 1.5733-0.64826 1.5731-1.4382l-0.003-2.0539c-0.00025-0.78996-0.70547-1.4397-1.5769-1.4372z" fill-rule="evenodd" stroke="#806600" stroke-width="1.4021" fill="#ffcc02"/>
  <path d="m185.96-31.238-36.073 0.02379c-0.86634-0.0029-1.5787 0.64314-1.5731 1.4382l-0.002 2.0593c0.00025 0.78997 0.71057 1.4343 1.582 1.4318l36.067-0.02892c0.86634 0.0029 1.5787-0.64314 1.5785-1.4331l-0.003-2.0539c-0.00025-0.78997-0.71085-1.4448-1.5769-1.4372z" fill-rule="evenodd" stroke="#806600" stroke-width="1.4021" fill="#ffcc02"/>
 </g>
 <g transform="translate(-24.321 22.613)">
  <use xlink:href="#g3895" transform="matrix(-1 0 0 1 354.01 227.92)" height="216.00101" width="324" y="0" x="0"/>
  <use xlink:href="#g3895" transform="matrix(-1 0 0 1 354.01 56.882)" height="216.00101" width="324" y="0" x="0"/>
  <use xlink:href="#g3895" transform="matrix(-1 0 0 1 354.01 113.76)" height="216.00101" width="324" y="0" x="0"/>
  <use xlink:href="#g3895" transform="matrix(-1 0 0 1 354.01 170.65)" height="216.00101" width="324" y="0" x="0"/>
  <use xlink:href="#g3895" transform="matrix(-1 0 0 1 354.01 0)" height="216.00101" width="324" y="0" x="0"/>
 </g>
 <g transform="translate(-5.8433 -7.3097)">
  <use xlink:href="#g3895" transform="translate(0 227.92)" height="216.00101" width="324" y="0" x="0"/>
  <g id="g3895">
   <path d="m183.81-13.051 0.56564-0.1434-0.0221 20.613-0.58231-0.37097-8.5325 6.195 3.2503-10.075-8.5469-6.1752 10.617-0.031878c1.0832-3.3371 2.1672-6.6745 3.2501-10.011z" fill="#ffcc02"/>
   <path fill="none" d="m184.06 6.982-8.8173 6.2607 3.2503-10.075-8.5469-6.1752 10.617-0.031878 3.2502-10.011"/>
  </g>
  <use xlink:href="#g3895" transform="translate(0 56.882)" height="216.00101" width="324" y="0" x="0"/>
  <use xlink:href="#g3895" transform="translate(0 113.76)" height="216.00101" width="324" y="0" x="0"/>
  <use xlink:href="#g3895" transform="translate(0 170.65)" height="216.00101" width="324" y="0" x="0"/>
 </g>
 <use xlink:href="#g3857" transform="translate(0 334.63)" height="216.00101" width="324" stroke="#7f0b16" y="0" x="0"/>
 <g transform="translate(0 -39.258)">
  <use xlink:href="#g4260" transform="matrix(-1 0 0 1 323.83 0)" height="100%" width="100%" y="0" x="0"/>
  <g id="g4260">
   <path d="m88.979 198.2c-5.6986-0.85768 6.4002 18.313 15.475 22.404-21.708-18.783 17.34-15.132 24.361-11.655-5.549-17.754-25.471-9.158-39.836-10.749z" fill-rule="evenodd" stroke="#969696" stroke-width="1.7526" fill="#cdcdcd"/>
   <path d="m142.31 181.44c4.1586 3.2259-4.3236 19.838-13.495 27.516-37.19-21.43-58.188 4.91-101.83-6.14-8.456-3.15-12.515-32.96-19.629-45.57 53.539 31.4 73.265-18.17 134.95 24.19z" fill-rule="evenodd" stroke="#969696" stroke-width="1.7526" fill="#fff"/>
  </g>
  <path stroke-linejoin="round" d="m125.03 411.7c-0.84128 3.4823-0.72617 7.8088 0.7168 13.307 3.4975 14.5 9.087 29 17.25 43.5 41.071 12.749 56.585-12.101 87.965-12 31.379-0.101 46.894 24.749 87.965 12 8.163-14.5 13.752-29 17.25-43.5 1.443-5.4978 1.5581-9.8244 0.71679-13.307-4.5073 8.3938-11.326 15.477-28.117 15.891-0.89027 0.0219-1.8235 0.0643-2.75 0.10352-31.089-1.3384-51.042-15.438-75.064-15.438-24.023 0-43.976 14.099-75.064 15.438-0.92647-0.0392-1.8597-0.0816-2.75-0.10352-16.791-0.41319-23.61-7.4968-28.117-15.891z" fill-rule="evenodd" transform="matrix(.70103 0 0 .70103 0 -87.416)" stroke="#969696" stroke-width="2.5" fill="#fff"/>
  <g>
   <path d="m49.64 179.41-0.01617 2.0242-4.0483-0.0323-0.12935 16.193-2.3659-0.0189 0.12935-16.193-4.0483-0.0323 0.01617-2.0242 10.463 0.0836z"/>
   <path d="m51.023 179.59q1.8112-0.55295 3.5171-0.65212 1.3647-0.0793 2.4853 0.17152 1.1206 0.25086 1.9476 0.88745 0.827 0.63658 1.3095 1.6882 0.50871 1.0501 0.5972 2.5723 0.10985 1.8896-0.55634 3.1133-0.64147 1.196-1.8399 1.8713 0.34545 0.50658 0.87124 1.3977 0.55052 0.86333 1.1132 1.9366 0.58744 1.0455 1.127 2.1728 0.56577 1.1258 0.96798 2.1557l-2.362 0.1373q-0.33446-0.77055-0.83859-1.7419-0.47788-0.97288-1.0067-1.9165-0.53038-0.96983-1.0546-1.8347-0.5258-0.8911-0.92984-1.4996-0.41686 0.0769-0.86149 0.12908-0.44463 0.0522-0.89078 0.0781l-0.65611 0.0381 0.41192 7.086-2.3095 0.13425-1.042-17.925zm2.8267 8.7626 0.99729-0.058q1.8109-0.10527 2.7346-0.9753 0.92222-0.89627 0.80475-2.9171-0.0595-1.0235-0.36161-1.6906-0.27739-0.69486-0.77268-1.0611-0.47057-0.39398-1.1374-0.53955-0.64055-0.14709-1.4279-0.10132-0.68236 0.0397-1.2552 0.15196l0.41803 7.191z"/>
   <path d="m69.444 177.88q0.84055 1.8918 1.6607 3.8388 0.84339 1.918 1.6573 4.0507 0.84001 2.1299 1.6823 4.5239 0.86846 2.3912 1.7796 5.1745l-2.3521 0.25599q-0.33707-1.1533-0.69743-2.2776-0.33422-1.1272-0.69458-2.2515l-5.6973 0.62005q-0.1362 1.1784-0.22012 2.351-0.08393 1.1727-0.16501 2.3715l-2.2737 0.24745q0.26493-2.9112 0.59866-5.4333 0.33373-2.522 0.66976-4.7799 0.36217-2.2607 0.7471-4.3124 0.40822-2.0806 0.82212-4.109l2.4828-0.27021zm-0.99047 2.8051q-0.41728 2.2403-0.77946 4.501-0.36217 2.2607-0.6607 4.6203l4.7826-0.52051q-0.77299-2.2429-1.613-4.3728t-1.7295-4.2279z"/>
   <path d="m81.201 194.67q-0.84962-1.8791-1.7026-3.7844-0.85628-1.9313-1.7359-4.0451-0.85352-2.1172-1.737-4.469-0.88683-2.3779-1.827-5.1731l2.4512-0.31314q0.59551 1.9646 1.2726 3.9453 0.67374 1.9546 1.393 3.8504 0.71923 1.8958 1.4251 3.6873 0.72865 1.7621 1.4079 3.345 0.25951-1.7028 0.4957-3.5882 0.25894-1.9148 0.47847-3.9305 0.21954-2.0157 0.38026-4.077 0.15739-2.0873 0.23988-4.1385l2.373-0.30315q-0.20725 2.9417-0.4678 5.4662-0.26388 2.4984-0.58382 4.7655-0.29386 2.2637-0.63712 4.3483-0.34659 2.0585-0.69651 4.0908l-2.5295 0.32314z"/>
   <path d="m95.472 175.13q0.68859 1.9523 1.3524 3.9579 0.68936 1.9786 1.3324 4.1689 0.66926 2.1895 1.32 4.6426 0.67699 2.4523 1.3656 5.2988l-2.365 0.0695q-0.24498-1.1763-0.51546-2.3256-0.24421-1.15-0.51469-2.2993l-5.7285 0.16839q-0.22879 1.1639-0.40502 2.3263t-0.35169 2.351l-2.2861 0.0672q0.49391-2.8812 1.0257-5.3691 0.53177-2.4878 1.045-4.7121 0.5395-2.2251 1.0852-4.2399 0.57118-2.0419 1.1439-4.0312l2.4964-0.0734zm-1.2088 2.7182q-0.59282 2.2003-1.1323 4.4254-0.5395 2.2251-1.0233 4.5537l4.8088-0.14135q-0.59352-2.297-1.2628-4.4865-0.66926-2.1895-1.3903-4.3512z"/>
   <path d="m105.64 175.5 2.3511 0.26511-2.0413 18.103-2.3511-0.2651 2.0413-18.103z"/>
   <path d="m118.68 194.67-0.52186 1.9558-7.8486-2.0942 4.6967-17.602 2.286 0.60997-4.1749 15.646 5.5626 1.4842z"/>
   <path style="" d="m206.03 196.6-5.3909-17.402 7.8097-2.4193 0.59899 1.9336-5.5496 1.7192 1.6958 5.4743 4.9218-1.5247 0.58343 1.8834-4.9218 1.5247 2.5126 8.111-2.26 0.70012z"/>
   <path style="" d="m220.08 175.15q0.80631 1.9067 1.5912 3.8681 0.80868 1.9328 1.584 4.0799 0.80149 2.1447 1.6005 4.5535 0.82521 2.4065 1.686 5.2057l-2.3563 0.21354q-0.31623-1.1592-0.65626-2.2898-0.31385-1.133-0.65388-2.2636l-5.7076 0.51725q-0.15742 1.1757-0.26247 2.3467t-0.20773 2.3681l-2.2778 0.20643q0.31737-2.906 0.69651-5.4216t0.75582-4.7671q0.40287-2.2538 0.82471-4.2982 0.44566-2.0729 0.89606-4.0935l2.4872-0.2254zm-1.0409 2.7868q-0.4576 2.2324-0.86047 4.4862t-0.74388 4.6076l4.7912-0.4342q-0.73243-2.2565-1.5339-4.4012-0.80148-2.1447-1.653-4.2584z"/>
   <path style="" d="m235.89 191.35q-0.3167-1.9388-0.67669-3.7236-0.36-1.7848-0.71674-3.3577-0.32776-1.5962-0.66084-2.902-0.33309-1.3059-0.6221-2.2895-0.26758 1.4781-0.54335 3.2727-0.24678 1.7713-0.53113 3.6443-0.25822 1.8758-0.5193 3.7778-0.23208 1.8787-0.44701 3.6006l-2.2474-0.246q0.33584-2.3434 0.67454-4.7129 0.34157-2.3956 0.69782-4.6838 0.38524-2.3115 0.75619-4.4924 0.39707-2.178 0.79454-4.1179l2.3258 0.25458q0.34738 1.1752 0.77681 2.809 0.43228 1.6076 0.8474 3.372 0.44125 1.7673 0.83024 3.5288 0.38899 1.7616 0.65265 3.2185 0.57259-1.3654 1.3073-3.004 0.73472-1.6386 1.5217-3.2714t1.5307-3.1117q0.77268-1.5022 1.3661-2.5744l2.3258 0.25458q-0.0316 1.98-0.14123 4.1894-0.0835 2.2123-0.23353 4.5496-0.12106 2.314-0.30582 4.7268-0.18191 2.3866-0.36095 4.7472l-2.2474-0.24601q0.13652-1.7305 0.29307-3.6439 0.18268-1.9106 0.3131-3.8268 0.15941-1.9395 0.27838-3.7513 0.12184-1.8379 0.18322-3.365-0.30671 0.62757-0.78127 1.5806-0.44556 0.92973-0.96341 2.0367-0.49172 1.1098-1.0443 2.2923-0.52357 1.1592-1.0124 2.2428-0.46273 1.0865-0.85316 1.9958-0.36145 0.88604-0.58117 1.4438l-1.9861-0.2174z"/>
   <path style="" d="m250.47 177.48 2.3487 0.28554-2.1987 18.085-2.3487-0.28554 2.1987-18.085z"/>
   <path style="" d="m263.27 194.93-0.16433 2.0176-8.0964-0.65944 1.4789-18.158 2.3582 0.19207-1.3146 16.14 5.7382 0.46736z"/>
   <path style="" d="m274.19 195.64-0.12172 2.0206-8.1085-0.48846 1.0955-18.185 2.3617 0.14227-0.97375 16.165 5.7468 0.34618z"/>
   <path style="" d="m276.93 197.76-0.18464-18.217 8.1754-0.0829 0.0205 2.0241-5.8095 0.0589 0.0573 5.6518 5.2575-0.0533 0.02 1.9716-5.2575 0.0533 0.0663 6.5456 6.2301-0.0631 0.0205 2.0241-8.596 0.0871z"/>
   <path style="" d="m126.49 216.36q1.6718-0.88944 3.3781-1.3264 1.3243-0.33911 2.4787-0.28194 1.1733 0.0252 2.1134 0.51715 0.95903 0.45998 1.6404 1.4253 0.70684 0.95875 1.0916 2.4613 0.39128 1.528 0.23876 2.734-0.15904 1.1805-0.77244 2.0702-0.61992 0.86431-1.6622 1.4568-1.0168 0.58603-2.3666 0.93166l-1.0696 0.2739 1.676 6.545-2.292 0.58692-4.4541-17.394zm4.555 8.2501 0.91681-0.23477q0.86588-0.22173 1.5078-0.57607 0.66091-0.38634 1.0339-0.94319 0.37301-0.55684 0.4516-1.3097 0.0786-0.75282-0.18226-1.7715-0.26085-1.0187-0.6916-1.6411-0.43727-0.64786-1-0.93795-0.5438-0.32208-1.2261-0.33731-0.68233-0.0152-1.4463 0.1804-0.66214 0.16956-1.2028 0.38943l1.839 7.1817z"/>
   <path style="" d="m144.17 211.7q1.0199 1.8015 2.0247 3.6598 1.0252 1.8272 2.0419 3.8711 1.0424 2.0385 2.1127 4.3397 1.096 2.2958 2.2724 4.9777l-2.3162 0.48263q-0.4472-1.1152-0.91478-2.1993-0.44184-1.0895-0.90941-2.1736l-5.6104 1.169q-0.0214 1.186 0.009 2.3613 0.0301 1.1753 0.0655 2.3763l-2.239 0.46654q-0.0183-2.9232 0.0695-5.4657 0.0879-2.5425 0.20359-4.8223 0.14147-2.2852 0.32584-4.3644 0.20475-2.1104 0.42022-4.1693l2.4449-0.50945zm-0.71408 2.8878q-0.19831 2.2702-0.33978 4.5553-0.14147 2.2852-0.21002 4.6625l4.7097-0.98135q-0.98663-2.1575-2.029-4.196t-2.1309-4.0405z"/>
   <path style="" d="m162.12 209.82 0.10687 2.0214-4.0428 0.21374 0.85497 16.171-2.3627 0.12491-0.85497-16.171-4.0428 0.21374-0.10687-2.0214 10.448-0.5524z"/>
   <path style="" d="m167.68 210.29q1.8786-0.23874 3.5767-0.048 1.3585 0.15257 2.4205 0.58928 1.062 0.43672 1.7695 1.204 0.70745 0.76725 1.0052 1.8853 0.32383 1.121 0.15366 2.6362-0.21124 1.881-1.0748 2.9744-0.83446 1.0703-2.1298 1.5332 0.25482 0.5577 0.62237 1.5249 0.39661 0.94398 0.76975 2.097 0.4022 1.1298 0.74335 2.3321 0.36728 1.2052 0.58954 2.2883l-2.3512-0.26405q-0.19935-0.81601-0.53198-1.8586-0.3065-1.0397-0.66819-2.0591-0.35875-1.0455-0.72924-1.9866-0.36755-0.96717-0.66288-1.6352-0.42386 0.005-0.87092-0.0185-0.44705-0.0238-0.89116-0.0736l-0.65312-0.0733-0.79215 7.0536-2.299-0.25819 2.0039-17.843zm1.3044 9.1144 0.99274 0.11149q1.8026 0.20244 2.8602-0.49887 1.0605-0.72743 1.2864-2.739 0.11443-1.0189-0.0705-1.7274-0.1559-0.73177-0.58214-1.1764-0.39717-0.46787-1.0298-0.72409-0.60645-0.25329-1.3902-0.34131-0.67924-0.0763-1.2628-0.0625l-0.8039 7.1581z"/>
   <path style="" d="m183.2 212.46 2.3025 0.5444-4.1919 17.729-2.3025-0.5444 4.1919-17.729z"/>
   <path style="" d="m185.57 231.88 4.5201-17.648 7.9202 2.0285-0.50224 1.9609-5.6282-1.4415-1.4024 5.4754 5.0933 1.3045-0.48919 1.91-5.0934-1.3045-1.6241 6.3412 6.0356 1.5458-0.50224 1.9609-8.3276-2.1329z"/>
  </g>
 </g>
</svg>
